<?xml version="1.0" encoding="utf-8"?>
<!-- Generator: Adobe Illustrator 22.0.1, SVG Export Plug-In . SVG Version: 6.00 Build 0)  -->
<svg version="1.1" id="Layer_1" xmlns="http://www.w3.org/2000/svg" xmlns:xlink="http://www.w3.org/1999/xlink" x="0px" y="0px"
	 viewBox="0 0 225.8 241.9" style="enable-background:new 0 0 225.8 241.9;" xml:space="preserve">
<style type="text/css">
	.st0{fill:#404197;}
	.st1{fill:#C13533;}
	.st2{fill:#585AA8;}
	.st3{fill:#3B1F42;}
</style>
<title>bounty-hunter_sprite</title>
<rect x="209.7" y="161.3" class="st0" width="16.1" height="16.1"/>
<rect x="209.7" y="145.2" class="st1" width="16.1" height="16.1"/>
<rect x="209.7" y="129" class="st2" width="16.1" height="16.1"/>
<rect x="193.5" y="145.2" class="st1" width="16.1" height="16.1"/>
<rect x="193.5" y="129" class="st0" width="16.1" height="16.1"/>
<rect x="193.5" y="112.9" class="st1" width="16.1" height="16.1"/>
<rect x="177.4" y="161.3" class="st1" width="16.1" height="16.1"/>
<rect x="177.4" y="145.2" class="st1" width="16.1" height="16.1"/>
<rect x="177.4" y="129" class="st1" width="16.1" height="16.1"/>
<rect x="177.4" y="112.9" class="st1" width="16.1" height="16.1"/>
<rect x="177.4" y="96.8" class="st0" width="16.1" height="16.1"/>
<rect x="177.4" y="80.7" class="st2" width="16.1" height="16.1"/>
<rect x="177.4" y="64.5" class="st2" width="16.1" height="16.1"/>
<rect x="177.4" y="48.4" class="st0" width="16.1" height="16.1"/>
<rect x="177.4" y="32.3" class="st0" width="16.1" height="16.1"/>
<rect x="161.3" y="225.8" class="st0" width="16.1" height="16.1"/>
<rect x="161.3" y="209.7" class="st0" width="16.1" height="16.1"/>
<rect x="161.3" y="193.6" class="st3" width="16.1" height="16.1"/>
<rect x="161.3" y="177.4" class="st0" width="16.1" height="16.1"/>
<rect x="161.3" y="161.3" class="st0" width="16.1" height="16.1"/>
<rect x="161.3" y="145.2" class="st1" width="16.1" height="16.1"/>
<rect x="161.3" y="129" class="st1" width="16.1" height="16.1"/>
<rect x="161.3" y="112.9" class="st0" width="16.1" height="16.1"/>
<rect x="161.3" y="96.8" class="st0" width="16.1" height="16.1"/>
<rect x="161.3" y="80.7" class="st3" width="16.1" height="16.1"/>
<rect x="161.3" y="64.5" class="st3" width="16.1" height="16.1"/>
<rect x="161.3" y="48.4" class="st0" width="16.1" height="16.1"/>
<rect x="161.3" y="32.3" class="st0" width="16.1" height="16.1"/>
<rect x="161.3" y="16.1" class="st0" width="16.1" height="16.1"/>
<rect x="145.2" y="209.7" class="st0" width="16.1" height="16.1"/>
<rect x="145.2" y="193.6" class="st3" width="16.1" height="16.1"/>
<rect x="145.2" y="177.4" class="st0" width="16.1" height="16.1"/>
<rect x="145.2" y="161.3" class="st2" width="16.1" height="16.1"/>
<rect x="145.2" y="145.2" class="st1" width="16.1" height="16.1"/>
<rect x="145.2" y="129" class="st0" width="16.1" height="16.1"/>
<rect x="145.2" y="112.9" class="st0" width="16.1" height="16.1"/>
<rect x="145.2" y="96.8" class="st0" width="16.1" height="16.1"/>
<rect x="145.2" y="80.7" class="st2" width="16.1" height="16.1"/>
<rect x="145.2" y="64.5" class="st2" width="16.1" height="16.1"/>
<rect x="145.2" y="48.4" class="st0" width="16.1" height="16.1"/>
<rect x="145.2" y="32.3" class="st0" width="16.1" height="16.1"/>
<rect x="145.2" y="16.1" class="st0" width="16.1" height="16.1"/>
<rect x="129" y="209.7" class="st0" width="16.1" height="16.1"/>
<rect x="129" y="193.6" class="st3" width="16.1" height="16.1"/>
<rect x="129" y="177.4" class="st0" width="16.1" height="16.1"/>
<rect x="129" y="161.3" class="st2" width="16.1" height="16.1"/>
<rect x="129" y="145.2" class="st1" width="16.1" height="16.1"/>
<rect x="129" y="129" class="st0" width="16.1" height="16.1"/>
<rect x="129" y="112.9" class="st0" width="16.1" height="16.1"/>
<rect x="129" y="96.8" class="st0" width="16.1" height="16.1"/>
<rect x="129" y="80.7" class="st3" width="16.1" height="16.1"/>
<rect x="129" y="64.5" class="st3" width="16.1" height="16.1"/>
<rect x="129" y="48.4" class="st0" width="16.1" height="16.1"/>
<rect x="129" y="32.3" class="st0" width="16.1" height="16.1"/>
<rect x="129" y="16.1" class="st0" width="16.1" height="16.1"/>
<rect x="129" class="st0" width="16.1" height="16.1"/>
<rect x="112.9" y="209.7" class="st0" width="16.1" height="16.1"/>
<rect x="112.9" y="193.6" class="st3" width="16.1" height="16.1"/>
<rect x="112.9" y="177.4" class="st0" width="16.1" height="16.1"/>
<rect x="112.9" y="161.3" class="st2" width="16.1" height="16.1"/>
<rect x="112.9" y="145.2" class="st1" width="16.1" height="16.1"/>
<rect x="112.9" y="129" class="st0" width="16.1" height="16.1"/>
<rect x="112.9" y="112.9" class="st0" width="16.1" height="16.1"/>
<rect x="112.9" y="96.8" class="st0" width="16.1" height="16.1"/>
<rect x="112.9" y="80.7" class="st2" width="16.1" height="16.1"/>
<rect x="112.9" y="64.5" class="st2" width="16.1" height="16.1"/>
<rect x="112.9" y="48.4" class="st0" width="16.1" height="16.1"/>
<rect x="112.9" y="32.3" class="st0" width="16.1" height="16.1"/>
<rect x="112.9" y="16.1" class="st0" width="16.1" height="16.1"/>
<rect x="96.8" y="225.8" class="st0" width="16.1" height="16.1"/>
<rect x="96.8" y="209.7" class="st0" width="16.1" height="16.1"/>
<rect x="96.8" y="193.6" class="st3" width="16.1" height="16.1"/>
<rect x="96.8" y="177.4" class="st0" width="16.1" height="16.1"/>
<rect x="96.8" y="161.3" class="st0" width="16.1" height="16.1"/>
<rect x="96.8" y="145.2" class="st1" width="16.1" height="16.1"/>
<rect x="96.8" y="129" class="st1" width="16.1" height="16.1"/>
<rect x="96.8" y="112.9" class="st0" width="16.1" height="16.1"/>
<rect x="96.8" y="96.8" class="st0" width="16.1" height="16.1"/>
<rect x="96.8" y="80.7" class="st3" width="16.1" height="16.1"/>
<rect x="96.8" y="64.5" class="st3" width="16.1" height="16.1"/>
<rect x="96.8" y="48.4" class="st0" width="16.1" height="16.1"/>
<rect x="96.8" y="32.3" class="st0" width="16.1" height="16.1"/>
<rect x="96.8" y="16.1" class="st0" width="16.1" height="16.1"/>
<rect x="80.6" y="161.3" class="st1" width="16.1" height="16.1"/>
<rect x="80.6" y="145.2" class="st1" width="16.1" height="16.1"/>
<rect x="80.6" y="129" class="st1" width="16.1" height="16.1"/>
<rect x="80.6" y="112.9" class="st1" width="16.1" height="16.1"/>
<rect x="80.6" y="96.8" class="st0" width="16.1" height="16.1"/>
<rect x="80.6" y="80.7" class="st2" width="16.1" height="16.1"/>
<rect x="80.6" y="64.5" class="st2" width="16.1" height="16.1"/>
<rect x="80.6" y="48.4" class="st0" width="16.1" height="16.1"/>
<rect x="80.6" y="32.3" class="st0" width="16.1" height="16.1"/>
<rect x="64.5" y="145.2" class="st0" width="16.1" height="16.1"/>
<rect x="64.5" y="129" class="st0" width="16.1" height="16.1"/>
<rect x="64.5" y="112.9" class="st1" width="16.1" height="16.1"/>
<rect x="48.4" y="145.2" class="st3" width="16.1" height="16.1"/>
<rect x="48.4" y="129" class="st3" width="16.1" height="16.1"/>
<rect x="32.2" y="145.2" class="st3" width="16.1" height="16.1"/>
<rect x="32.2" y="129" class="st0" width="16.1" height="16.1"/>
<rect x="16.1" y="177.4" class="st0" width="16.1" height="16.1"/>
<rect x="16.1" y="161.3" class="st0" width="16.1" height="16.1"/>
<rect x="16.1" y="145.2" class="st3" width="16.1" height="16.1"/>
<rect x="16.1" y="129" class="st0" width="16.1" height="16.1"/>
<rect x="16.1" y="112.9" class="st3" width="16.1" height="16.1"/>
<rect x="16.1" y="96.8" class="st3" width="16.1" height="16.1"/>
<rect x="16.1" y="80.7" class="st3" width="16.1" height="16.1"/>
<rect x="16.1" y="64.5" class="st3" width="16.1" height="16.1"/>
<rect x="16.1" y="48.4" class="st3" width="16.1" height="16.1"/>
<rect x="16.1" y="32.3" class="st3" width="16.1" height="16.1"/>
<rect y="145.2" class="st3" width="16.1" height="16.1"/>
<rect y="129" class="st0" width="16.1" height="16.1"/>
</svg>
