<svg id="Layer_1" data-name="Layer 1" xmlns="http://www.w3.org/2000/svg" viewBox="0 0 225.8 241.94"><defs><style>.cls-1{fill:#faf7c7;}.cls-2{fill:#d7b130;}.cls-3{fill:#ad3633;}.cls-4{fill:#d3ac2a;}.cls-5{fill:#2d1636;}.cls-6{fill:#fff;}</style></defs><title>character</title><g id="_Group_" data-name="&lt;Group&gt;"><rect class="cls-1" x="16.12" y="48.39" width="16.13" height="16.13"/><rect class="cls-1" x="16.12" y="32.26" width="16.13" height="16.13"/><rect class="cls-1" x="16.12" y="80.65" width="16.13" height="16.13"/><rect class="cls-1" x="16.12" y="64.52" width="16.13" height="16.13"/><rect class="cls-1" x="16.12" y="96.78" width="16.13" height="16.13"/><rect class="cls-1" x="16.12" y="112.91" width="16.13" height="16.13"/><rect class="cls-2" x="209.67" y="161.29" width="16.13" height="16.13"/><rect class="cls-3" x="209.67" y="145.17" width="16.13" height="16.12"/><rect class="cls-1" x="209.67" y="129.04" width="16.13" height="16.13"/><rect class="cls-3" x="193.54" y="145.17" width="16.13" height="16.12"/><rect class="cls-2" x="193.54" y="129.04" width="16.13" height="16.13"/><rect class="cls-3" x="193.54" y="112.91" width="16.13" height="16.13"/><rect class="cls-3" x="177.41" y="161.29" width="16.13" height="16.13"/><rect class="cls-3" x="177.41" y="145.17" width="16.13" height="16.12"/><rect class="cls-3" x="177.41" y="129.04" width="16.13" height="16.13"/><rect class="cls-3" x="177.41" y="112.91" width="16.13" height="16.13"/><rect class="cls-2" x="177.41" y="96.78" width="16.13" height="16.13"/><rect class="cls-2" x="177.41" y="80.65" width="16.13" height="16.13"/><rect class="cls-2" x="177.41" y="64.52" width="16.13" height="16.13"/><rect class="cls-2" x="177.41" y="48.39" width="16.13" height="16.13"/><rect class="cls-4" x="177.41" y="32.26" width="16.13" height="16.13"/><rect class="cls-2" x="161.29" y="225.81" width="16.12" height="16.13"/><rect class="cls-2" x="161.29" y="209.68" width="16.12" height="16.13"/><rect class="cls-3" x="161.29" y="193.55" width="16.12" height="16.13"/><rect class="cls-2" x="161.29" y="177.42" width="16.12" height="16.13"/><rect class="cls-2" x="161.29" y="161.29" width="16.12" height="16.13"/><rect class="cls-3" x="161.29" y="145.17" width="16.12" height="16.12"/><rect class="cls-3" x="161.29" y="129.04" width="16.12" height="16.13"/><rect class="cls-2" x="161.29" y="112.91" width="16.12" height="16.13"/><rect class="cls-2" x="161.29" y="96.78" width="16.12" height="16.13"/><rect class="cls-5" x="161.29" y="80.65" width="16.12" height="16.13"/><rect class="cls-4" x="161.29" y="64.52" width="16.12" height="16.13"/><rect class="cls-1" x="161.29" y="48.39" width="16.12" height="16.13"/><rect class="cls-1" x="161.29" y="32.26" width="16.12" height="16.13"/><rect class="cls-4" x="161.29" y="16.13" width="16.12" height="16.13"/><rect class="cls-2" x="145.16" y="209.68" width="16.13" height="16.13"/><rect class="cls-3" x="145.16" y="193.55" width="16.13" height="16.13"/><rect class="cls-2" x="145.16" y="177.42" width="16.13" height="16.13"/><rect class="cls-1" x="145.16" y="161.29" width="16.13" height="16.13"/><rect class="cls-3" x="145.16" y="145.17" width="16.13" height="16.12"/><rect class="cls-2" x="145.16" y="129.04" width="16.13" height="16.13"/><rect class="cls-5" x="145.16" y="112.91" width="16.13" height="16.13"/><rect class="cls-2" x="145.16" y="96.78" width="16.13" height="16.13"/><rect class="cls-2" x="145.16" y="80.65" width="16.13" height="16.13"/><rect class="cls-2" x="145.16" y="64.52" width="16.13" height="16.13"/><rect class="cls-2" x="145.16" y="48.39" width="16.13" height="16.13"/><rect class="cls-2" x="145.16" y="32.26" width="16.13" height="16.13"/><rect class="cls-4" x="145.16" y="16.13" width="16.13" height="16.13"/><rect class="cls-2" x="129.03" y="209.68" width="16.13" height="16.13"/><rect class="cls-3" x="129.03" y="193.55" width="16.13" height="16.13"/><rect class="cls-2" x="129.03" y="177.42" width="16.13" height="16.13"/><rect class="cls-1" x="129.03" y="161.29" width="16.13" height="16.13"/><rect class="cls-3" x="129.03" y="145.17" width="16.13" height="16.12"/><rect class="cls-2" x="129.03" y="129.04" width="16.13" height="16.13"/><rect class="cls-2" x="129.03" y="112.91" width="16.13" height="16.13"/><rect class="cls-2" x="129.03" y="96.78" width="16.13" height="16.13"/><rect class="cls-5" x="129.03" y="80.65" width="16.13" height="16.13"/><rect class="cls-2" x="129.03" y="64.52" width="16.13" height="16.13"/><rect class="cls-3" x="129.03" y="48.39" width="16.13" height="16.13"/><rect class="cls-1" x="129.03" y="32.26" width="16.13" height="16.13"/><rect class="cls-1" x="129.03" y="16.13" width="16.13" height="16.13"/><rect class="cls-4" x="129.03" width="16.13" height="16.13"/><rect class="cls-2" x="112.9" y="209.68" width="16.13" height="16.13"/><rect class="cls-3" x="112.9" y="193.55" width="16.13" height="16.13"/><rect class="cls-2" x="112.9" y="177.42" width="16.13" height="16.13"/><rect class="cls-1" x="112.9" y="161.29" width="16.13" height="16.13"/><rect class="cls-3" x="112.9" y="145.17" width="16.13" height="16.12"/><rect class="cls-2" x="112.9" y="129.04" width="16.13" height="16.13"/><rect class="cls-5" x="112.9" y="112.91" width="16.13" height="16.13"/><rect class="cls-2" x="112.9" y="96.78" width="16.13" height="16.13"/><rect class="cls-2" x="112.9" y="80.65" width="16.13" height="16.13"/><rect class="cls-2" x="112.9" y="64.52" width="16.13" height="16.13"/><rect class="cls-2" x="112.9" y="48.39" width="16.13" height="16.13"/><rect class="cls-2" x="112.9" y="32.26" width="16.13" height="16.13"/><rect class="cls-4" x="112.9" y="16.13" width="16.13" height="16.13"/><rect class="cls-2" x="96.77" y="225.81" width="16.13" height="16.13"/><rect class="cls-2" x="96.77" y="209.68" width="16.13" height="16.13"/><rect class="cls-3" x="96.77" y="193.55" width="16.13" height="16.13"/><rect class="cls-2" x="96.77" y="177.42" width="16.13" height="16.13"/><rect class="cls-2" x="96.77" y="161.29" width="16.13" height="16.13"/><rect class="cls-3" x="96.77" y="145.17" width="16.13" height="16.12"/><rect class="cls-3" x="96.77" y="129.04" width="16.13" height="16.13"/><rect class="cls-2" x="96.77" y="112.91" width="16.13" height="16.13"/><rect class="cls-2" x="96.77" y="96.78" width="16.13" height="16.13"/><rect class="cls-5" x="96.77" y="80.65" width="16.13" height="16.13"/><rect class="cls-4" x="96.77" y="64.52" width="16.13" height="16.13"/><rect class="cls-1" x="96.77" y="48.39" width="16.13" height="16.13"/><rect class="cls-1" x="96.77" y="32.26" width="16.13" height="16.13"/><rect class="cls-4" x="96.77" y="16.13" width="16.13" height="16.13"/><rect class="cls-3" x="80.64" y="161.29" width="16.13" height="16.13"/><rect class="cls-3" x="80.64" y="145.17" width="16.13" height="16.12"/><rect class="cls-3" x="80.64" y="129.04" width="16.13" height="16.13"/><rect class="cls-3" x="80.64" y="112.91" width="16.13" height="16.13"/><rect class="cls-2" x="80.64" y="96.78" width="16.13" height="16.13"/><rect class="cls-2" x="80.64" y="80.65" width="16.13" height="16.13"/><rect class="cls-2" x="80.64" y="64.52" width="16.13" height="16.13"/><rect class="cls-2" x="80.64" y="48.39" width="16.13" height="16.13"/><rect class="cls-4" x="80.64" y="32.26" width="16.13" height="16.13"/><rect class="cls-2" x="64.51" y="145.17" width="16.13" height="16.12"/><rect class="cls-2" x="64.51" y="129.04" width="16.13" height="16.13"/><rect class="cls-3" x="64.51" y="112.91" width="16.13" height="16.13"/><rect class="cls-6" x="48.38" y="161.29" width="16.13" height="16.13"/><rect class="cls-3" x="48.38" y="145.17" width="16.13" height="16.12"/><rect class="cls-3" x="48.38" y="129.04" width="16.13" height="16.13"/><rect class="cls-3" x="32.25" y="145.17" width="16.13" height="16.12"/><rect class="cls-2" x="32.25" y="129.04" width="16.13" height="16.13"/><rect class="cls-2" x="16.12" y="177.42" width="16.13" height="16.13"/><rect class="cls-2" x="16.12" y="161.29" width="16.13" height="16.13"/><rect class="cls-3" x="16.12" y="145.17" width="16.13" height="16.12"/><rect class="cls-2" x="16.12" y="129.04" width="16.13" height="16.13"/><rect class="cls-3" y="145.17" width="16.12" height="16.12"/><rect class="cls-2" y="129.04" width="16.12" height="16.13"/></g></svg>