<?xml version="1.0" encoding="utf-8"?>
<!-- Generator: Adobe Illustrator 22.0.1, SVG Export Plug-In . SVG Version: 6.00 Build 0)  -->
<svg version="1.1" id="Layer_1" xmlns="http://www.w3.org/2000/svg" xmlns:xlink="http://www.w3.org/1999/xlink" x="0px" y="0px"
	 viewBox="0 0 500 500" style="enable-background:new 0 0 500 500;" xml:space="preserve">
<style type="text/css">
	.st0{fill:#00A651;}
</style>
<path class="st0" d="M250,0C111.9,0,0,111.9,0,250s111.9,250,250,250s250-111.9,250-250S388.1,0,250,0z M250,459.8
	c-115.9,0-209.8-93.9-209.8-209.8S134.1,40.2,250,40.2S459.8,134.1,459.8,250S365.9,459.8,250,459.8z"/>
<g id="Od7xBx.tif">
	<g>
		<path class="st0" d="M266.7,359.1c-4.5-2.7-8.9-5.5-13.4-8.2c-0.4-0.3-0.8-0.7-1.2-1c-13.7-9-26.4-19.3-38.4-30.4
			c-15.1-14.1-29.5-28.9-41.7-45.7c-9.7-13.2-23.1-22.1-38.1-28.3c-13.3-5.4-26.2-11.4-38.6-18.7c-9.2-5.4-18-11.4-26.4-18.1
			c-0.8-0.6-1.5-1.3-2-2.3c-4.5-8.2-5.3-16.9-3.6-25.9c0.9-4.7,2.8-9.1,5.2-13.2c5.1-8.9,11.4-16.7,19.2-23.4c5-4.3,9.8-8.9,15.1-13
			c5.3-4.1,9.4-9.6,13.5-14.9c6.2-7.8,11.7-16.1,18-23.8c1.1-1.3,2-2.8,3-4.2c6.6-9,12.7-18.1,16.4-28.8c3.3-9.3,7-18.5,8.8-28.3
			c0.7-3.9,1.7-7.7,2.6-11.5c0.6-2.8,0.6-2.9,3.5-2.3c14.5,2.7,29,5.5,43.4,8.3c7.4,1.4,14.8,2.8,22.2,4.2c15.6,3,31.2,6,46.8,9
			c2.3,0.4,2.5,0.7,2,3c-0.8,3.3-1.7,6.7-2.3,10c-1.3,6.9-1.8,13.8-1.6,20.8c0.2,4.8-0.4,9.6-0.4,14.5c-0.1,8.7-0.5,17.4-0.6,26.1
			c-0.2,8.6-0.3,17.3-0.3,25.9c0,5.7,0.4,11.4,0.6,17.1c0.1,3.5,0.8,7,1.9,10.3c2.8,8.7,5.7,17.4,8.8,26c1,2.9,1.9,5.8,2.9,8.7
			c3.1,9.1,6.2,18.2,9.2,27.3c2.6,7.9,5.3,15.8,7.6,23.8c3,10.6,6.8,21,8.3,31.9c0.1,0.8,0.3,1.5,0.6,2.2c1.8,4.7,4.1,9.2,6.8,13.4
			c6,9.6,12.9,18.5,20.1,27.2c0.7,0.9,1.5,1.5,2.6,1.9c2.5,0.9,4.8,2.2,6.9,3.8c4.7,3.6,8.9,7.7,12.4,12.5c2,2.8,4.3,5.1,7.9,5.8
			c0.2,0,0.5,0.2,0.7,0.3c8.4,3.9,16.3,8.8,24.2,13.6c3,1.8,5.2,3.9,6.1,7.6c1.3,5.2,0.6,9.7-2.9,13.7c-4.4,4.8-10.5,6.1-16.5,7.2
			c-7.8,1.4-15.7,1.3-23.6,0.8c-2.7-0.2-5.5-0.1-8.2-0.9c-10-2.7-19.4-7.1-28.8-11.4c-3.2-1.5-6.3-3.5-9.9-4.1
			c-5.2-0.9-10.2-2.3-15.2-3.9c-7.7-2.5-15.1-5.5-22.3-9.1C274,362.9,270.4,361,266.7,359.1z"/>
	</g>
</g>
</svg>
