<?xml version="1.0" encoding="utf-8"?>
<!-- Generator: Adobe Illustrator 22.0.1, SVG Export Plug-In . SVG Version: 6.00 Build 0)  -->
<svg version="1.1" id="Layer_2" xmlns="http://www.w3.org/2000/svg" xmlns:xlink="http://www.w3.org/1999/xlink" x="0px" y="0px"
	 viewBox="0 0 500 500" style="enable-background:new 0 0 500 500;" xml:space="preserve">
<style type="text/css">
	.st0{fill:#FFFFFF;}
</style>
<g id="x9Fsrf.tif">
	<g>
		<path class="st0" d="M192.4,271.7c0-55.4,0-110.8,0-166.2c0-7-0.8-14.4,7.4-17.9c8.1-3.5,13.1,2.2,18.2,6.8
			c81,73.5,162,147,243,220.5c5.5,5,11.4,10.1,8,18.6c-3.3,8.4-11,8.4-18.5,8.4c-25.8,0-51.6,0-77.3,0c-11.7,0-11.8,0.1-7.6,10.7
			c10.6,26.5,21.3,53,31.9,79.5c6.4,16.1,4.5,20.3-11.7,26.9c-15.2,6.2-30.3,12.4-45.5,18.4c-11.8,4.6-17.2,2.3-22-9.6
			c-11-27.1-21.7-54.3-32.7-81.4c-4-10-4.7-10.1-12-1.8c-18.4,21-36.6,42.1-55,63c-4.8,5.5-9.6,11.8-18.4,8.1
			c-8.1-3.4-7.7-10.7-7.7-17.8C192.4,382.4,192.4,327.1,192.4,271.7z M421.8,316.5c0.3-0.8,0.5-1.6,0.8-2.5
			c-68-61.8-136-123.7-205.1-186.5c0,95.2,0,188.2,0,282.9c19.1-21.7,36.8-42.3,55-62.5c11.1-12.3,20-10.5,26.3,5.1
			c9.9,24.5,19.7,49.1,29.5,73.7c10.1,25.1,10,24.9,35.5,14.4c7.4-3,8.3-6.1,5.3-13.2c-12.5-29.9-24.5-60-36.3-90.1
			c-5.3-13.5-0.4-20.8,14.3-21.2c13.6-0.4,27.2-0.1,40.8-0.1C399.2,316.5,410.5,316.5,421.8,316.5z"/>
		<path class="st0" d="M226.7,42.5c-51.2,0-102.4,0-153.7,0c-15.5,0-17.4,1.9-17.4,17.6c0,87.1,0,174.2,0,261.3
			c0,16.1,1.9,17.9,18.1,18c25.1,0.1,50.2,0,75.3,0.1c3.8,0,7.7,0.1,11.4,0.9c6.2,1.3,9.8,5.6,9.9,11.8c0.1,6.4-3.9,11.5-9.9,11.6
			c-35.1,1-70.4,3.8-105.3-1.5c-12.7-1.9-20.6-12.5-23.5-25.5c-1.2-5.4-1.5-11.1-1.5-16.6c-0.1-86.4-0.1-172.8-0.1-259.2
			c0-9.8,0.8-19.6,6.5-28.1c7.2-10.6,17.3-16.1,30-16.1c107.3-0.1,214.6-0.2,322,0.1c20.9,0,35.2,15.1,35.3,36
			c0.1,51.9,0.1,103.8,0,155.8c0,11.5-4.2,17.5-11.8,17.5c-8.1,0-12.6-6.3-12.6-18.1c0-49.1,0-98.3,0-147.4c0-16.1-2-18.2-18-18.2
			C329.8,42.5,278.2,42.5,226.7,42.5z"/>
	</g>
</g>
</svg>
