<svg id="Layer_4" data-name="Layer 4" xmlns="http://www.w3.org/2000/svg" viewBox="0 0 478.64 438.83"><defs><style>.cls-1{fill:#fff;}</style></defs><title>editor_bucket</title><g id="bIRSEx.tif"><path class="cls-1" d="M490.78,403.35c-4.09,17.93-19.34,28.4-39.27,28.49-26.74.12-46.27-23.6-39.64-49.48,4.1-16,10.15-31.46,15.36-47.15a61.06,61.06,0,0,0,3.33-24.42c-.25-3-.53-6.52-3.33-7.85-3.53-1.69-5.09,2.24-7,4.17C371.9,355.26,323.07,402.9,275.73,452c-18.92,19.62-39.67,23.24-64.08,16.52-33.54-9.24-62.22-27.51-88.85-49.17-35.93-29.22-68-62-91.28-102.52-10.79-18.81-18.84-38.63-18.34-61,.31-13.9,4.64-26,14.32-36,11.77-12.1,24-23.78,35.68-36,5.44-5.66,8.34-4.53,11.3,2.18a61.53,61.53,0,0,0,13.25,19.67c5,4.78,5,8.29-.14,13-7.58,6.9-14,15.13-22,21.5-10.94,8.73-11.4,19.34-8,31.2,6.77,23.43,20.38,43,36,61.18,30.14,35.25,63.94,66.19,106,86.93,32.52,16.05,33.19,15.85,58.49-9.42q55.86-55.82,111.81-111.54c5.32-5.27,6.8-7.39-2-10.69-24.49-9.23-45-25.15-64.76-41.82-33.33-28.07-63.08-59.48-87.37-95.82-6.63-9.92-12.84-20.12-16.59-31.54-1.82-5.56-3.86-7.26-8.66-2.47q-32,31.92-64.27,63.54c-4.06,4-3.72,6.77-.14,10.75C146,212.65,170.7,227.63,197.9,239c5.53,2.31,7.68-1.17,10.92-3.87a30.64,30.64,0,0,1,41.54,1.77A30.63,30.63,0,0,1,212,284.23c-4.58-2.9-9-6.54-10.26-11.73-2.25-9.05-8.88-12.08-16.45-15.28-36-15.28-67.36-36.85-89.34-70-12.55-18.93-19.91-39.56-17.27-62.77C81.84,96.59,97.14,78.28,123.23,69a111,111,0,0,1,50.94-5.24c6.43.78,10.72-.75,14.8-5.34,4-4.44,8.84-8.11,12.51-12.75C212,32.34,226,31.05,241,34.25c37.43,8,68,28.78,96.35,53.16,84.16,72.46,141.8,163.26,152.44,273.39C490.81,371.39,493.14,393,490.78,403.35ZM385.46,202.11A445.73,445.73,0,0,0,322,129.59C302.71,112,283,94.69,259.33,82.86c-7.25-3.63-16-9-23.12-2.4-7.69,7.13-.89,15.55,2.45,22.7,9.05,19.38,22.94,35.51,36.21,52,11.54,14.38,23.26,28.47,44.68,25.71a8.31,8.31,0,0,1,1.94.41C344,184.43,364.78,192.72,385.46,202.11ZM159.34,87.44c-5.34-2.76-9.67-1.6-13.76-1.21C116.69,89,98.85,108.08,100,134.78c.12,2.6-.61,6,2,7.28,3.55,1.79,5.1-2.11,7-4,11.57-11.33,23-22.81,34.41-34.29C148.69,98.54,153.8,93.16,159.34,87.44Z" transform="translate(-13.16 -32.78)"/></g></svg>