<?xml version="1.0" encoding="utf-8"?>
<!-- Generator: Adobe Illustrator 22.0.1, SVG Export Plug-In . SVG Version: 6.00 Build 0)  -->
<svg version="1.1" id="Layer_3" xmlns="http://www.w3.org/2000/svg" xmlns:xlink="http://www.w3.org/1999/xlink" x="0px" y="0px"
	 viewBox="0 0 500 500" style="enable-background:new 0 0 500 500;" xml:space="preserve">
<style type="text/css">
	.st0{fill:#FFFFFF;}
</style>
<g id="rWHtEs.tif">
	<g>
		<path class="st0" d="M8.9,451.7c0-4.4,0-8.9,0-13.3c1.3-8.7,4.4-16.6,9.9-23.6c3.1-4,7-7.4,10.5-11.1c2.9-3,4.3-6.5,3.4-10.8
			c-0.5-2.2-0.7-4.6-0.7-6.9c0-19.8,6.7-37,20.8-51.1c60-60,120-120.1,180.1-180c1.7-1.7,1.9-2.6,0-4.4c-7-6.6-13.8-13.4-20.5-20.3
			c-7.3-7.4-7.2-17.3,0.1-24.6c9.2-9.3,18.4-18.5,27.7-27.7c7.2-7.1,17.5-7.1,24.7-0.1c2.5,2.5,5,5,7.5,7.5
			c7.4,7.4,14.8,14.8,22.1,22.1c0.8,0.8,1.3,1.9,2.7,0.5c10.3-10.5,20.6-21,31.1-31.3c14.6-14.5,28.6-29.6,43.8-43.4
			c13.4-12.1,28-22.1,46.6-24.4c2.1,0,4.3,0,6.4,0c10.3,1,19.5,4.7,27.3,11.4c10.5,8.9,20.5,18.6,29.1,29.4
			c7.1,8.8,11.1,19,10.8,30.5c-0.3,10.4-3.7,19.8-9.2,28.5c-6.7,10.5-14.8,19.9-23.6,28.7c-21.2,21.2-42.4,42.4-63.6,63.6
			c-0.8,0.8-1.5,1.6-2.3,2.2c-1.8,1.2-1.5,2.1-0.1,3.4c7.4,7.3,14.6,14.6,21.9,22c2.8,2.9,5.8,5.6,8.5,8.6
			c5.4,5.9,6.5,15.2,1.4,20.8c-10.4,11.4-21.3,22.4-32.8,32.7c-6.1,5.5-15.6,4.1-22.1-2.3c-6.9-6.7-13.6-13.5-20.4-20.4
			c-1.4-1.5-2.4-1.4-3.8,0c-4.1,4.2-8.3,8.4-12.5,12.6c-55.9,55.9-111.7,111.9-167.7,167.6c-16.1,16-35.7,22.8-58.4,20
			c-3.9-0.5-7.3,0.6-10.1,3.4c-3.1,3-6.1,6.2-9.4,9.1c-20.2,17.4-50.9,15-68.3-5.3C13.7,468.5,10.4,460.5,8.9,451.7z M147.5,353.8
			c22.7,0,45.4,0,68,0c2.4,0,4.1-0.7,5.9-2.4c34.5-34.6,69-69.1,103.5-103.6c2.5-2.5,2.5-2.5-0.1-5.1c-22.3-22.3-44.6-44.7-66.8-67
			c-2.4-2.4-2.4-2.4-4.7-0.1C194.8,234.1,136.4,292.5,78,351c-0.3,0.3-0.7,0.7-1,1c-0.3,0.4-0.9,0.7-0.7,1.2
			c0.2,0.7,0.9,0.5,1.5,0.5c0.7,0,1.3,0,2,0C102.3,353.8,124.9,353.8,147.5,353.8z"/>
	</g>
</g>
</svg>
