<svg id="Layer_1" data-name="Layer 1" xmlns="http://www.w3.org/2000/svg" viewBox="0 0 494.02 458.11"><defs><style>.cls-1{fill:#fff;}</style></defs><title>editor_brush</title><g id="ULL891.tif"><path class="cls-1" d="M497,74.07a169.22,169.22,0,0,1-2.85,17.62,72,72,0,0,1-11.79,26,24.84,24.84,0,0,1-7.19,6.54c-41.2,25.24-82.5,50.34-123.45,76a70.81,70.81,0,0,0-28.21,33.11c-6.52,15.6-3.29,29.74,7.13,42.6a26.91,26.91,0,0,0,7.24,6.53,38.75,38.75,0,0,1,9.53,8.17c8.53,9.85,9.09,20.91,1.68,31.64-3.43,5-7.88,8.94-12.16,13.09-9,8.71-18.07,17.35-27,26.11-1.59,1.56-2.52,1.5-4.07,0q-25.78-25.57-51.69-51-48.85-48.12-97.74-96.23c-9.29-9.13-18.54-18.3-27.91-27.36-1.58-1.53-1.53-2.51-.19-4.14,9.37-11.44,18.62-23,28-34.43,8.81-10.77,22.17-12.95,35.25-5.93a69.06,69.06,0,0,1,23,20.45c7.3,10,17.12,16.24,28.18,20.81,19.94,8.26,39,2.8,51.15-15.14,29.59-43.71,61.31-85.9,91.64-129.08,5.56-7.91,13.66-11.78,22.55-14.21,15.82-4.31,32-4.64,48.26-3.8a299.61,299.61,0,0,1,31.8,3.21c5.54.88,4.61-.29,5.78,5.44a141,141,0,0,1,2.75,20.7,13.29,13.29,0,0,0,.32,1.72Z" transform="translate(-2.99 -20.95)"/><path class="cls-1" d="M181.3,479.05c-1.68-2.31-3.29-4.67-5.06-6.91-1.18-1.5-1.2-2.64,0-4.19q26.78-33.46,53.44-67c3.4-4.27,6.79-8.55,10.1-12.9-2.11,2-4.31,4-6.33,6.11Q207,422,180.59,450c-3.87,4.09-7.8,8.13-11.62,12.26-1.13,1.22-2,1.38-3.36.34-5.19-3.85-5.28-3.84-1.06-8.7q23.23-26.75,46.52-53.43a2.52,2.52,0,0,0,.76-1.6c-3.67,3.25-7.36,6.5-11,9.77q-23.59,21.07-47.16,42.19c-1.34,1.19-2.22,1.45-3.5,0a48.28,48.28,0,0,0-4.66-4.61c-1.51-1.3-1.45-2.28-.09-3.7,4.89-5.08,9.64-10.31,14.51-15.42q22.1-23.18,44.23-46.31a3.8,3.8,0,0,0,1.05-1.61l-20.48,17.81q-22.05,19.21-44.06,38.47c-1.44,1.27-2.21,1.26-3.25-.46-2.81-4.66-2.91-4.64.73-8.81,11.2-12.85,22.43-25.68,33.43-38.75L154.09,402.8c-7.81,6.9-15.65,13.77-23.4,20.73-1.72,1.55-2.66,1.61-4-.47-3.64-5.62-3.75-5.57.19-11.07,10.78-15,21.57-30,32.05-45.3l-41,46.1-.73-.42,12.33-26.84c-.67-.1-.85.44-1.15.71a12.64,12.64,0,0,0-.85.94c-5,5.63-10.13,11.23-15.1,16.93-1.4,1.61-2.28,1.87-4,.21-4.87-4.81-4.93-4.71-.74-10.09q27.66-35.5,55.29-71a4,4,0,0,0,.93-1.86q-4.56,5.13-9.13,10.28-27.2,30.8-54.37,61.63c-1.24,1.42-2,1.65-3.21-.07-2.69-3.85-2.76-3.8-.21-7.82l29.9-47a4.38,4.38,0,0,0,.79-2c-.57.63-1.17,1.23-1.71,1.88q-18.51,22-37,44c-1.92,2.28-1.85,2.15-5.64-.59-2.14-1.55-.87-2.62.06-3.89q21.44-29.3,42.88-58.59a3.52,3.52,0,0,0,1.07-2.29L76.64,372.75l-.55-.44,26.73-38.19-.4-.32q-7.4,8-14.77,16.08c-5.74,6.26-11.49,12.51-17.17,18.81-1.18,1.31-1.84,1.22-2.86-.21-4.29-6-4.32-6-.22-12.23Q91.15,320,114.88,283.69a3.28,3.28,0,0,0,.66-1.67c-2.24,3-4.48,5.91-6.71,8.88l-48,63.87c-2.13,2.82-2.13,2.82-4.46.05-4.46-5.3-4.46-5.31-.53-11.16,4.06-6.05,8.13-12.09,12.52-18.61a9.12,9.12,0,0,0-3.26,2.28c-5.83,4.83-11.68,9.63-17.41,14.56-1.52,1.32-2.49,1.22-3.72-.22a26.22,26.22,0,0,0-3.21-3.2c-1.54-1.28-1.46-2.23,0-3.62,7.76-7.33,15.42-14.75,23.12-22.15,4.48-4.3,9-8.6,13.19-13.26L31.27,331.13l-.51-.56L83,269.64l-.25-.24c-3.79,4-7.59,8-11.37,12.07q-21,22.42-42.06,44.89c-1.38,1.48-2.2,1.27-3.36-.14-1.92-2.34-3.91-4.63-6-6.8-1.44-1.49-1.27-2.48.17-3.92Q40.43,295,60.65,274.39a6.39,6.39,0,0,0,1.45-2L38.27,291.71c-8.42,6.82-16.86,13.62-25.22,20.53-1.74,1.44-2.67,1.42-3.78-.66-1.74-3.26-3.66-6.42-5.65-9.54-.94-1.48-.87-2.42.49-3.63Q46,261.26,87.75,224c8.22-7.32,16.48-14.6,24.61-22,1.79-1.63,2.82-1.82,4.7,0q50.2,47.82,100.54,95.5,37.14,35.22,74.29,70.41c2.83,2.68,2.83,2.69.1,5.32l-92.71,89.1q-8.73,8.38-17.48,16.75Z" transform="translate(-2.99 -20.95)"/></g></svg>