<?xml version="1.0" encoding="utf-8"?>
<!-- Generator: Adobe Illustrator 22.0.1, SVG Export Plug-In . SVG Version: 6.00 Build 0)  -->
<svg version="1.1" id="Layer_1" xmlns="http://www.w3.org/2000/svg" xmlns:xlink="http://www.w3.org/1999/xlink" x="0px" y="0px"
	 viewBox="0 0 500 500" style="enable-background:new 0 0 500 500;" xml:space="preserve">
<style type="text/css">
	.st0{fill:#3775B7;}
</style>
<path class="st0" d="M250,0C111.9,0,0,111.9,0,250c0,132.2,102.7,240.5,232.7,249.4c5.7,0.4,11.5,0.6,17.3,0.6
	c9,0,17.8-0.5,26.6-1.4C402.2,485.3,500,379.1,500,250C500,111.9,388.1,0,250,0z M264.5,459.3c-4.8,0.3-9.7,0.5-14.5,0.5
	c-11.5,0-22.8-0.9-33.8-2.7c-99.8-16.2-176-102.7-176-207.1c0-115.9,93.9-209.8,209.8-209.8S459.8,134.1,459.8,250
	C459.8,361,373.6,451.8,264.5,459.3z"/>
<g id="HSOECw.tif">
	<g>
		<path class="st0" d="M323.1,284.6c1.6-2.2,4.2-2,6.3-2.6c7.4-1.9,14.9-3.6,22.3-5.2c3.7-0.8,5.7-2.6,6.5-6.4
			c1.6-8,3.7-15.9,5.6-23.8c0.4-1.7,0.5-3.6,1.9-5c2.2,1.5,2,3.8,2.4,5.8c1.9,7.7,3.8,15.5,5.4,23.3c0.7,3.6,2.6,5.3,6.1,6.1
			c8.8,1.9,17.5,4.1,26.2,6.2c1.1,0.3,2.3,0.3,3.1,1.7c-1.9,1.7-4.3,1.7-6.4,2.2c-7.8,1.9-15.5,4-23.3,5.6c-3.2,0.7-4.8,2.2-5.5,5.4
			c-1.7,7.8-3.7,15.5-5.6,23.3c-0.5,2-1.1,4.1-1.7,6.7c-2.3-1.6-2.3-3.5-2.7-5.2c-2-8.1-4.1-16.1-5.8-24.2c-0.8-3.5-2.5-5.4-6.1-6.1
			c-8-1.7-15.9-3.7-23.8-5.6C326.4,286.1,324.5,286.1,323.1,284.6z"/>
		<path class="st0" d="M102.8,140.2c2,0.7,1.9,2.2,2.2,3.4c2,8.4,4.2,16.8,6,25.3c0.8,3.5,2.3,5.4,6,6.1c8.3,1.7,16.5,3.9,24.8,5.9
			c1.4,0.3,3,0.4,4,1.8c-1,1.7-2.8,1.6-4.3,2c-7.8,1.9-15.5,4-23.3,5.6c-4.4,0.9-6.4,2.8-7.3,7.2c-1.6,8.5-3.9,16.8-5.9,25.3
			c-0.2,1-0.4,2-1.6,2.5c-1.9-1.7-1.8-4.1-2.3-6.3c-1.9-7.6-3.9-15.1-5.5-22.8c-0.7-3.3-2.3-4.8-5.4-5.5c-8.3-1.9-16.5-3.9-24.8-5.9
			c-1.6-0.4-3.3-0.4-5-2.6c5.6-1.4,10.8-2.8,16-4.1c4.7-1.2,9.4-2.3,14.1-3.3c3-0.6,4.5-2.2,5.1-5.2c1.8-8.3,3.9-16.5,5.9-24.8
			C101.8,143.3,102.3,141.8,102.8,140.2z"/>
		<path class="st0" d="M379.5,121.2c1.6,6.2,3.4,12.4,4.7,18.6c0.8,3.6,2.5,5.4,6.1,6.1c6.1,1.3,12.2,3,19.2,4.7
			c-3.7,2.9-7.4,3.5-10.7,3.7c-10.6,0.9-16,6.2-16.7,16.8c-0.2,3.4-1.6,6.7-2.8,11.5c-3-5.9-4.1-11-4.7-15.8
			c-0.9-7.1-4.3-10.4-11.2-11.3c-4.9-0.6-9.6-2.3-15.1-3.7c3.4-3,7-3.1,10.2-3.8c13.8-3,13.8-3,17.1-16.8c0.8-3.4,1.7-6.7,2.5-10
			C378.4,121.3,379,121.2,379.5,121.2z"/>
		<path class="st0" d="M150.5,390.1c-1.2-4.6-2.6-9.2-3.5-13.8c-0.7-3.9-2.5-6.1-6.6-6.8c-4.8-0.8-9.5-2.4-15.5-4
			c5.5-2.7,10-3.5,14.5-4.3c4.5-0.9,6.9-2.9,7.7-7.6c0.7-4.5,2.2-8.9,3.7-14.7c3,5.9,3.7,11,4.8,15.8c0.8,3.6,2.5,5.4,6.1,6.1
			c4.8,0.9,9.6,2.4,14.4,4.2c-4.3,2.7-9.2,3.5-13.9,4.5c-4,0.9-6,2.9-6.7,6.8c-0.9,4.7-2.3,9.3-3.5,13.9
			C151.5,390.1,151,390.1,150.5,390.1z"/>
	</g>
	<g id="_x31_YjuVh.tif">
		<g>
			<path class="st0" d="M335.4,216.7c-0.2,7.6-3.7,12.9-10.7,14.6c-14,3.3-28.4,4-42.6,6c-4.5,0.6-15.2-9.9-15.6-14.6
				c-0.4-4.4,2.8-6.4,5.8-8.4c7.5-5,14.2-10.7,19.7-18c10-13.3,9.9-27.7,4.8-43c-6.7-20.1-29.7-28.2-47.9-23.7
				c-22.1,5.4-40.2,26.8-43.5,49.6c-3.5,23.8,2,45.7,12.5,67c5.8,11.7,11.6,23.3,17.4,34.9c16,28.8,33.8,56.3,53.7,82.4
				c6.8,8.9,8.2,18.2,3.1,28.4c-9.5,19.2-18.4,38.6-25.6,58.8c-1,2.9-1.6,5.8-1.8,8.6c-4.8,0.3-9.7,0.5-14.5,0.5
				c-11.5,0-22.8-0.9-33.8-2.7c0.4-7.2,2.6-14.6,6.1-22c7.5-16.1,14-32.6,20.6-49.1c2.6-6.5,2.3-13.7-1.1-20.1
				c-21-38.7-44.1-76-74.9-107.9c-0.4-0.4-0.7-1-1.2-1.4c-14.9-9.5-13.5-22.5-9.2-36.8c3.4-11.3,5.5-23,7.7-34.7
				c3.2-17.6,6-35.3,8.8-53c1.4-8.9,1.3-18.1,3.2-27c1.8-7.9,6.4-11.9,14.3-11.8c37,0.4,74-0.9,110.9-2.6c3.8-0.2,7.6-0.6,11.4-0.8
				c9.1-0.3,14.4,4.4,15.1,13.5c1.9,26.2,3.7,52.5,5.6,78.8C334.3,193.7,335.8,205.1,335.4,216.7z"/>
			<path class="st0" d="M266.7,195.7c-10.2,6.6-25.5,3.8-31.7-5.7c-7.6-11.7-5.2-26.8,5.5-33.8c11.4-7.4,26.1-4.7,32.9,6.1
				C280.8,174,278,188.4,266.7,195.7z"/>
		</g>
	</g>
</g>
</svg>
