<?xml version="1.0" encoding="utf-8"?>
<!-- Generator: Adobe Illustrator 22.0.1, SVG Export Plug-In . SVG Version: 6.00 Build 0)  -->
<svg version="1.1" id="Layer_1" xmlns="http://www.w3.org/2000/svg" xmlns:xlink="http://www.w3.org/1999/xlink" x="0px" y="0px"
	 viewBox="0 0 500 500" style="enable-background:new 0 0 500 500;" xml:space="preserve">
<style type="text/css">
	.st0{fill:#ED1C24;}
</style>
<path class="st0" d="M250,0C111.9,0,0,111.9,0,250s111.9,250,250,250s250-111.9,250-250S388.1,0,250,0z M250,459.8
	c-115.9,0-209.8-93.9-209.8-209.8S134.1,40.2,250,40.2S459.8,134.1,459.8,250S365.9,459.8,250,459.8z"/>
<g id="spkU71.tif">
	<g>
		<path class="st0" d="M410.7,194.1c-3.4,4.5-7.8,7.9-12,11.4c-18.1,15-36.2,30-54.3,44.9c-2.9,2.4-5.9,4.5-9.2,6.4
			c-1.6,0.9-2.9,0.9-4.4-0.2c-2.5-1.8-4.7-3.8-6.8-6c-5.1-5.1-10.2-10.2-14.5-15.9c-2.7-3.6-2.6-4.4,0.2-7.9
			c8-9.7,16.8-18.7,25.2-28.1c11.1-12.5,22.4-24.9,33.6-37.3c2-2.2,4.2-4.3,6.3-6.5c1.5-1.6,2.8-1.6,4.5-0.2
			c3.1,2.6,5.9,5.4,8.7,8.4c6.9,7.5,13.5,15.3,19.4,23.7c1.3,1.9,2.5,3.9,3.5,6C410.7,193.3,410.7,193.7,410.7,194.1z"/>
		<path class="st0" d="M193.1,478.2c-5.8,0.1-13.3-0.1-20.8-0.9c-0.5,0-1-0.1-1.5-0.2c-3.5-0.7-4.3-1.5-3.9-5.1
			c0.7-6.5,1.4-13,2.3-19.5c1.9-13.4,3.9-26.8,5.8-40.3c2.4-16.5,4.8-33.1,7.2-49.6c0.8-6,2.1-11.9,2.3-17.9
			c0.1-1.7-0.4-3.2-1.3-4.7c-11.1-17.2-22.7-34-34.2-50.8c-18.9-27.8-37.9-55.4-56.4-83.4c-4.6-6.9-4.5-12.9,0.2-19.6
			c13.4-18.9,26.5-38,39.8-56.9c8.1-11.5,16.3-22.8,24.4-34.2c0.7-0.9,1.3-1.9,2.1-2.7c2.8-3.2,4.7-3.6,8.1-2.2
			c21.3,8.7,42.3,18,63.4,27.2c9.1,4,18.1,8.2,27.1,12.3c1,0.5,2.1,1,3.1,1.6c5.1,2.6,7,6.6,6.5,12.3c-0.6,6.7-1.4,13.3-2.7,19.8
			c-0.8,3.6-2.8,5.6-6.3,6.4c-6.7,1.6-13.6,2.4-20.4,3.3c-5.9,0.8-11.8,1.3-17.8,1.9c-9.5,1.1-17.4-1.6-24.1-8.4
			c-4.1-4.1-8-8.4-12.6-12.1c-0.8-0.7-1.7-2-2.6-1.5c-1.1,0.6-0.5,2.1-0.3,3.2c0.7,4.6,2,9.1,4.3,13.2c0.9,1.6,1.9,3.2,2.4,5
			c0.9,3.3-0.1,5.5-3.1,7.2c-2.6,1.4-5.4,1.8-8.3,2.3c-2.3,0.4-4.5,0.9-6.6,1.8c-0.8,0.3-1.7,0.6-1.7,1.7c0,1,0.9,1.4,1.7,1.8
			c5.6,2.3,11.1,4.6,16.8,6.9c7.2,2.9,14.5,5.5,21.5,8.8c4.9,2.3,8.3,5.9,10.8,10.7c6.6,12.5,14,24.6,21.1,36.9
			c11.5,20.1,23.5,39.9,34.5,60.3c0.5,0.9,0.9,1.8,1.3,2.7c2.4,5.4,2.1,7.5-2.5,11.3c-3.2,2.7-6.6,5.1-9.9,7.7
			c-0.8,0.6-2.1,1.4-1.8,2.5c0.4,1.2,2,0.9,3.1,0.9c3,0,6,0.2,9-0.2c1.3-0.2,1.8,0.4,1.8,1.7c0,7-0.3,13.9-0.8,20.9
			c-0.4,4.9-0.6,9.9-1,14.8c-0.7,8.9-1.4,17.9-2.1,26.8c-0.6,7.7-1.2,15.5-1.8,23.2c-0.8,9.3-1.7,18.6-2.4,27.9
			c-0.5,6.3-1.1,12.6-1.8,18.9c-0.5,4.2-0.6,4.6-4.9,5c-5.1,0.5-10.2,0.9-15.3,1c-11.3,0.4-22.6,0.6-33.8,0.5
			C205.7,478.2,200.3,478.2,193.1,478.2z"/>
		<path class="st0" d="M301.6,478.2c-5.9-0.2-13.7,0.3-21.5-0.4c-4.8-0.4-6.9-2.4-7.2-7.3c-0.3-4.6,0.2-9.2,0.6-13.8
			c0.5-5.9,1-11.9,1.6-17.8c0.8-9.2,1.6-18.4,2.5-27.7c0.9-9.2,1.8-18.4,2.7-27.6c1.4-14,2.4-28,4.7-41.9c0.5-3.1,1.6-3.8,4.8-3.4
			c2.4,0.4,4.8,1.1,7.2,1.2c2.8,0.1,2.9-0.2,1.7-2.7c-2.7-5.5-5.9-10.7-8.9-16c-17.6-30.3-36.1-60.2-53.5-90.6c-3-5.2-6-10.5-8.4-16
			c-1.3-3.1-0.7-4.2,2.7-4c9.1,0.3,18,1.6,26.5,5c12.6,5,24.9,10.5,36.9,16.8c5.4,2.9,10,6.8,14.3,11c5.7,5.7,11.2,11.6,17.2,16.9
			c5.7,5.1,6.6,5.2,13,1c11-7.2,21.3-15.4,32-23.1c3.4-2.4,6.8-4.8,10.3-7.1c2.5-1.7,3.8-0.9,4,2.1c0.2,3.6-0.4,7.2-0.9,10.7
			c-2.5,16.7-5.4,33.3-9.9,49.6c-4.2,15.3-9.9,30-19,43.2c-5.5,7.9-12,14.9-18.5,21.9c-1,1.1-1.5,2.3-1.5,3.9
			c0.2,19.9,0.2,39.8,0.7,59.7c0.3,14.3,0.2,28.6,0.3,42.9c0,2.7-0.2,5.5-0.5,8.2c-0.3,2.9-1.2,4-4.1,4.5c-4.5,0.8-9,0.9-13.5,0.9
			C313.3,478.2,308.4,478.2,301.6,478.2z"/>
		<path class="st0" d="M298.1,225.8c-3.9-0.2-7.4-1.6-11-3c-10-4.1-19.8-8.9-29.6-13.6c-2.7-1.3-2.9-2-1.6-4.7
			c2.7-5.4,6.3-10.3,9.8-15.2c18.6-25.5,37.5-50.8,57-75.6c1.6-2,3.2-3.9,5.1-5.6c1.5-1.4,3-1.5,4.6-0.1c2.6,2.3,5.4,4.6,7.9,7
			c9,8.7,18,17.4,26.4,26.7c0.5,0.6,1,1.2,1.6,1.8c1.8,1.7,1.4,3.4,0.2,5.2c-2.6,3.9-5.7,7.4-8.8,10.9c-18.4,21-36.8,41.9-55.2,62.9
			C302.9,224.4,300.9,225.9,298.1,225.8z"/>
		<path class="st0" d="M227.7,107.5c-0.5-0.2-1.5-0.4-2.4-0.8c-15.8-6.2-31.3-13.1-46.5-20.5c-2.7-1.3-3.1-2.8-1.6-5.4
			c3.3-5.5,7.3-10.5,11.1-15.6c9.1-12.3,17.8-24.7,27.3-36.6c1.3-1.6,2.7-3,4.1-4.4c2.8-2.8,4.4-3,7.8-1c6.8,4,12.9,8.9,19,13.8
			c4.1,3.3,8.2,6.8,12.3,10.2c1.5,1.3,2.9,2.6,4.1,4.1c2,2.2,2.2,3.4,0.6,6c-2.7,4.5-5.4,9-8.2,13.4c-7.5,11.6-15.1,23.1-23.2,34.3
			C230.4,107.2,229.8,107.6,227.7,107.5z"/>
		<path class="st0" d="M271.7,155.1c0.2-6.8,0.5-13.6,0.4-20.5c0-2.4-0.9-4-2.9-5.4c-5.2-3.4-10.8-6.1-16.2-8.9
			c-3.8-2-7.7-3.9-11.2-6.5c-2.3-1.7-2.5-2.1-1-4.6c6.7-12.1,14.3-23.6,22-35.1c2.7-4.1,5.5-8.1,8.4-12c3-4.1,5.6-4.5,9.9-1.8
			c4.5,2.9,8.3,6.7,12.1,10.4c9.5,9.1,18.8,18.4,28.2,27.6c1.2,1.1,1.1,2.1,0.4,3.4c-3.6,6.3-8.2,11.9-12.7,17.7
			c-10.5,13.8-21.2,27.4-31.8,41.1c-0.6,0.7-1.2,1.4-1.9,2.1c-0.7,0.6-1.5,1.3-2.5,0.9c-1-0.4-1.2-1.5-1.2-2.4
			C271.7,159.2,271.7,157.1,271.7,155.1z"/>
		<path class="st0" d="M198,180.9c2.8,0.5,5.7,1,8.5,1.4c6.7,1.1,13.3,0,19.9-1.1c9.2-1.5,18.2-3.9,27.5-5.2
			c1.7-0.2,3.4-0.4,5.1,0.1c1.6,0.5,2.2,1.5,1.9,3.1c-0.6,2.6-1.7,4.9-3.1,7.1c-3.7,5.7-8.3,10.6-13.4,15.1
			c-1.5,1.3-3.1,2.2-5.3,1.5c-13.5-4.6-27-9.4-40.1-15.1c-0.9-0.4-1.8-0.9-2.7-1.4c-1.3-0.8-2.7-1.7-2.2-3.5
			C194.7,181,196.4,181,198,180.9z"/>
	</g>
</g>
</svg>
