<?xml version="1.0" encoding="utf-8"?>
<!-- Generator: Adobe Illustrator 22.0.1, SVG Export Plug-In . SVG Version: 6.00 Build 0)  -->
<svg version="1.1" id="Layer_1" xmlns="http://www.w3.org/2000/svg" xmlns:xlink="http://www.w3.org/1999/xlink" x="0px" y="0px"
	 viewBox="0 0 500 500" style="enable-background:new 0 0 500 500;" xml:space="preserve">
<style type="text/css">
	.st0{fill:#BE2129;}
	.st1{fill:#D51F26;}
	.st2{fill:#B21F2F;}
	.st3{fill:#A31E24;}
	.st4{fill:#4A1417;}
	.st5{display:none;}
	.st6{display:inline;fill:none;stroke:#000000;stroke-miterlimit:10;}
</style>
<g id="XMLID_1_">
	<g>
		<g id="XMLID_2_">
			<g>
				<rect x="468.8" y="468.8" class="st0" width="31.2" height="31.2"/>
				<rect x="468.8" y="437.5" class="st0" width="31.2" height="31.2"/>
				<rect x="468.8" y="406.2" class="st0" width="31.2" height="31.2"/>
				<rect x="468.8" y="375" class="st1" width="31.2" height="31.2"/>
				<rect x="468.8" y="343.8" class="st1" width="31.2" height="31.2"/>
				<rect x="468.8" y="312.5" class="st1" width="31.2" height="31.2"/>
				<rect x="468.8" y="281.2" class="st1" width="31.2" height="31.2"/>
				<rect x="468.8" y="250" class="st1" width="31.2" height="31.2"/>
				<rect x="468.8" y="218.8" class="st1" width="31.2" height="31.2"/>
				<rect x="468.8" y="187.5" class="st2" width="31.2" height="31.2"/>
				<rect x="468.8" y="156.2" class="st2" width="31.2" height="31.2"/>
				<rect x="468.8" y="125" class="st2" width="31.2" height="31.2"/>
				<rect x="468.8" y="93.8" class="st2" width="31.2" height="31.2"/>
				<rect x="468.8" y="62.5" class="st1" width="31.2" height="31.2"/>
				<rect x="468.8" y="31.2" class="st1" width="31.2" height="31.2"/>
				<rect x="468.8" class="st1" width="31.2" height="31.2"/>
				<rect x="437.5" y="468.8" class="st0" width="31.2" height="31.2"/>
				<rect x="437.5" y="437.5" class="st0" width="31.2" height="31.2"/>
				<rect x="437.5" y="406.2" class="st1" width="31.2" height="31.2"/>
				<rect x="437.5" y="375" class="st1" width="31.2" height="31.2"/>
				<rect x="437.5" y="343.8" class="st1" width="31.2" height="31.2"/>
				<rect x="437.5" y="312.5" class="st1" width="31.2" height="31.2"/>
				<rect x="437.5" y="281.2" class="st1" width="31.2" height="31.2"/>
				<rect x="437.5" y="250" class="st1" width="31.2" height="31.2"/>
				<rect x="437.5" y="218.8" class="st1" width="31.2" height="31.2"/>
				<rect x="437.5" y="187.5" class="st2" width="31.2" height="31.2"/>
				<rect x="437.5" y="156.2" class="st3" width="31.2" height="31.2"/>
				<rect x="437.5" y="125" class="st3" width="31.2" height="31.2"/>
				<rect x="437.5" y="93.8" class="st2" width="31.2" height="31.2"/>
				<rect x="437.5" y="62.5" class="st1" width="31.2" height="31.2"/>
				<rect x="437.5" y="31.2" class="st1" width="31.2" height="31.2"/>
				<rect x="437.5" class="st1" width="31.2" height="31.2"/>
				<rect x="406.2" y="468.8" class="st0" width="31.2" height="31.2"/>
				<rect x="406.2" y="437.5" class="st0" width="31.2" height="31.2"/>
				<rect x="406.2" y="406.2" class="st1" width="31.2" height="31.2"/>
				<rect x="406.2" y="375" class="st1" width="31.2" height="31.2"/>
				<rect x="406.2" y="343.8" class="st1" width="31.2" height="31.2"/>
				<rect x="406.2" y="312.5" class="st1" width="31.2" height="31.2"/>
				<rect x="406.2" y="281.2" class="st1" width="31.2" height="31.2"/>
				<rect x="406.2" y="250" class="st1" width="31.2" height="31.2"/>
				<rect x="406.2" y="218.8" class="st1" width="31.2" height="31.2"/>
				<rect x="406.2" y="187.5" class="st2" width="31.2" height="31.2"/>
				<rect x="406.2" y="156.2" class="st4" width="31.2" height="31.2"/>
				<rect x="406.2" y="125" class="st4" width="31.2" height="31.2"/>
				<rect x="406.2" y="93.8" class="st2" width="31.2" height="31.2"/>
				<rect x="406.2" y="62.5" class="st1" width="31.2" height="31.2"/>
				<rect x="406.2" y="31.2" class="st1" width="31.2" height="31.2"/>
				<rect x="406.2" class="st0" width="31.2" height="31.2"/>
				<rect x="375" y="468.8" class="st0" width="31.2" height="31.2"/>
				<rect x="375" y="437.5" class="st1" width="31.2" height="31.2"/>
				<rect x="375" y="406.2" class="st1" width="31.2" height="31.2"/>
				<rect x="375" y="375" class="st1" width="31.2" height="31.2"/>
				<rect x="375" y="343.8" class="st1" width="31.2" height="31.2"/>
				<rect x="375" y="312.5" class="st1" width="31.2" height="31.2"/>
				<rect x="375" y="281.2" class="st1" width="31.2" height="31.2"/>
				<rect x="375" y="250" class="st1" width="31.2" height="31.2"/>
				<rect x="375" y="218.8" class="st1" width="31.2" height="31.2"/>
				<rect x="375" y="187.5" class="st2" width="31.2" height="31.2"/>
				<rect x="375" y="156.2" class="st4" width="31.2" height="31.2"/>
				<rect x="375" y="125" class="st4" width="31.2" height="31.2"/>
				<rect x="375" y="93.8" class="st2" width="31.2" height="31.2"/>
				<rect x="375" y="62.5" class="st1" width="31.2" height="31.2"/>
				<rect x="375" y="31.2" class="st1" width="31.2" height="31.2"/>
				<rect x="375" class="st0" width="31.2" height="31.2"/>
				<rect x="343.8" y="468.8" class="st0" width="31.2" height="31.2"/>
				<rect x="343.8" y="437.5" class="st1" width="31.2" height="31.2"/>
				<rect x="343.8" y="406.2" class="st1" width="31.2" height="31.2"/>
				<rect x="343.8" y="375" class="st1" width="31.2" height="31.2"/>
				<rect x="343.8" y="343.8" class="st1" width="31.2" height="31.2"/>
				<rect x="343.8" y="312.5" class="st1" width="31.2" height="31.2"/>
				<rect x="343.8" y="281.2" class="st1" width="31.2" height="31.2"/>
				<rect x="343.8" y="250" class="st1" width="31.2" height="31.2"/>
				<rect x="343.8" y="218.8" class="st1" width="31.2" height="31.2"/>
				<rect x="343.8" y="187.5" class="st2" width="31.2" height="31.2"/>
				<rect x="343.8" y="156.2" class="st4" width="31.2" height="31.2"/>
				<rect x="343.8" y="125" class="st4" width="31.2" height="31.2"/>
				<rect x="343.8" y="93.8" class="st2" width="31.2" height="31.2"/>
				<rect x="343.8" y="62.5" class="st1" width="31.2" height="31.2"/>
				<rect x="343.8" y="31.2" class="st0" width="31.2" height="31.2"/>
				<rect x="343.8" class="st0" width="31.2" height="31.2"/>
				<rect x="312.5" y="468.8" class="st2" width="31.2" height="31.2"/>
				<rect x="312.5" y="437.5" class="st2" width="31.2" height="31.2"/>
				<rect x="312.5" y="406.2" class="st2" width="31.2" height="31.2"/>
				<rect x="312.5" y="375" class="st2" width="31.2" height="31.2"/>
				<rect x="312.5" y="343.8" class="st2" width="31.2" height="31.2"/>
				<rect x="312.5" y="312.5" class="st2" width="31.2" height="31.2"/>
				<rect x="312.5" y="281.2" class="st2" width="31.2" height="31.2"/>
				<rect x="312.5" y="250" class="st2" width="31.2" height="31.2"/>
				<rect x="312.5" y="218.8" class="st2" width="31.2" height="31.2"/>
				<rect x="312.5" y="187.5" class="st2" width="31.2" height="31.2"/>
				<rect x="312.5" y="156.2" class="st4" width="31.2" height="31.2"/>
				<rect x="312.5" y="125" class="st4" width="31.2" height="31.2"/>
				<rect x="312.5" y="93.8" class="st2" width="31.2" height="31.2"/>
				<rect x="312.5" y="62.5" class="st1" width="31.2" height="31.2"/>
				<rect x="312.5" y="31.2" class="st0" width="31.2" height="31.2"/>
				<rect x="312.5" class="st0" width="31.2" height="31.2"/>
				<rect x="281.2" y="468.8" class="st3" width="31.2" height="31.2"/>
				<rect x="281.2" y="437.5" class="st3" width="31.2" height="31.2"/>
				<rect x="281.2" y="406.2" class="st3" width="31.2" height="31.2"/>
				<rect x="281.2" y="375" class="st3" width="31.2" height="31.2"/>
				<rect x="281.2" y="343.8" class="st3" width="31.2" height="31.2"/>
				<rect x="281.2" y="312.5" class="st3" width="31.2" height="31.2"/>
				<rect x="281.2" y="281.2" class="st3" width="31.2" height="31.2"/>
				<rect x="281.2" y="250" class="st3" width="31.2" height="31.2"/>
				<rect x="281.2" y="218.8" class="st3" width="31.2" height="31.2"/>
				<rect x="281.2" y="187.5" class="st3" width="31.2" height="31.2"/>
				<rect x="281.2" y="156.2" class="st4" width="31.2" height="31.2"/>
				<rect x="281.2" y="125" class="st4" width="31.2" height="31.2"/>
				<rect x="281.2" y="93.8" class="st2" width="31.2" height="31.2"/>
				<rect x="281.2" y="62.5" class="st1" width="31.2" height="31.2"/>
				<rect x="281.2" y="31.2" class="st0" width="31.2" height="31.2"/>
				<rect x="281.2" class="st0" width="31.2" height="31.2"/>
				<rect x="250" y="468.8" class="st4" width="31.2" height="31.2"/>
				<rect x="250" y="437.5" class="st4" width="31.2" height="31.2"/>
				<rect x="250" y="406.2" class="st4" width="31.2" height="31.2"/>
				<rect x="250" y="375" class="st4" width="31.2" height="31.2"/>
				<rect x="250" y="343.8" class="st4" width="31.2" height="31.2"/>
				<rect x="250" y="312.5" class="st4" width="31.2" height="31.2"/>
				<rect x="250" y="281.2" class="st4" width="31.2" height="31.2"/>
				<rect x="250" y="250" class="st4" width="31.2" height="31.2"/>
				<rect x="250" y="218.8" class="st4" width="31.2" height="31.2"/>
				<rect x="250" y="187.5" class="st4" width="31.2" height="31.2"/>
				<rect x="250" y="156.2" class="st4" width="31.2" height="31.2"/>
				<rect x="250" y="125" class="st4" width="31.2" height="31.2"/>
				<rect x="250" y="93.8" class="st2" width="31.2" height="31.2"/>
				<rect x="250" y="62.5" class="st1" width="31.2" height="31.2"/>
				<rect x="250" y="31.2" class="st0" width="31.2" height="31.2"/>
				<rect x="250" class="st0" width="31.2" height="31.2"/>
				<rect x="218.8" y="468.8" class="st4" width="31.2" height="31.2"/>
				<rect x="218.8" y="437.5" class="st4" width="31.2" height="31.2"/>
				<rect x="218.8" y="406.2" class="st4" width="31.2" height="31.2"/>
				<rect x="218.8" y="375" class="st4" width="31.2" height="31.2"/>
				<rect x="218.8" y="343.8" class="st4" width="31.2" height="31.2"/>
				<rect x="218.8" y="312.5" class="st4" width="31.2" height="31.2"/>
				<rect x="218.8" y="281.2" class="st4" width="31.2" height="31.2"/>
				<rect x="218.8" y="250" class="st4" width="31.2" height="31.2"/>
				<rect x="218.8" y="218.8" class="st4" width="31.2" height="31.2"/>
				<rect x="218.8" y="187.5" class="st4" width="31.2" height="31.2"/>
				<rect x="218.8" y="156.2" class="st4" width="31.2" height="31.2"/>
				<rect x="218.8" y="125" class="st4" width="31.2" height="31.2"/>
				<rect x="218.8" y="93.8" class="st2" width="31.2" height="31.2"/>
				<rect x="218.8" y="62.5" class="st1" width="31.2" height="31.2"/>
				<rect x="218.8" y="31.2" class="st0" width="31.2" height="31.2"/>
				<rect x="218.8" class="st0" width="31.2" height="31.2"/>
				<rect x="187.5" y="468.8" class="st3" width="31.2" height="31.2"/>
				<rect x="187.5" y="437.5" class="st3" width="31.2" height="31.2"/>
				<rect x="187.5" y="406.2" class="st3" width="31.2" height="31.2"/>
				<rect x="187.5" y="375" class="st3" width="31.2" height="31.2"/>
				<rect x="187.5" y="343.8" class="st3" width="31.2" height="31.2"/>
				<rect x="187.5" y="312.5" class="st3" width="31.2" height="31.2"/>
				<rect x="187.5" y="281.2" class="st3" width="31.2" height="31.2"/>
				<rect x="187.5" y="250" class="st3" width="31.2" height="31.2"/>
				<rect x="187.5" y="218.8" class="st3" width="31.2" height="31.2"/>
				<rect x="187.5" y="187.5" class="st3" width="31.2" height="31.2"/>
				<rect x="187.5" y="156.2" class="st4" width="31.2" height="31.2"/>
				<rect x="187.5" y="125" class="st4" width="31.2" height="31.2"/>
				<rect x="187.5" y="93.8" class="st2" width="31.2" height="31.2"/>
				<rect x="187.5" y="62.5" class="st1" width="31.2" height="31.2"/>
				<rect x="187.5" y="31.2" class="st0" width="31.2" height="31.2"/>
				<rect x="187.5" class="st0" width="31.2" height="31.2"/>
				<rect x="156.2" y="468.8" class="st2" width="31.2" height="31.2"/>
				<rect x="156.2" y="437.5" class="st2" width="31.2" height="31.2"/>
				<rect x="156.2" y="406.2" class="st2" width="31.2" height="31.2"/>
				<rect x="156.2" y="375" class="st2" width="31.2" height="31.2"/>
				<rect x="156.2" y="343.8" class="st2" width="31.2" height="31.2"/>
				<rect x="156.2" y="312.5" class="st2" width="31.2" height="31.2"/>
				<rect x="156.2" y="281.2" class="st2" width="31.2" height="31.2"/>
				<rect x="156.2" y="250" class="st2" width="31.2" height="31.2"/>
				<rect x="156.2" y="218.8" class="st2" width="31.2" height="31.2"/>
				<rect x="156.2" y="187.5" class="st2" width="31.2" height="31.2"/>
				<rect x="156.2" y="156.2" class="st4" width="31.2" height="31.2"/>
				<rect x="156.2" y="125" class="st4" width="31.2" height="31.2"/>
				<rect x="156.2" y="93.8" class="st2" width="31.2" height="31.2"/>
				<rect x="156.2" y="62.5" class="st1" width="31.2" height="31.2"/>
				<rect x="156.2" y="31.2" class="st0" width="31.2" height="31.2"/>
				<rect x="156.2" class="st0" width="31.2" height="31.2"/>
				<rect x="125" y="468.8" class="st0" width="31.2" height="31.2"/>
				<rect x="125" y="437.5" class="st1" width="31.2" height="31.2"/>
				<rect x="125" y="406.2" class="st1" width="31.2" height="31.2"/>
				<rect x="125" y="375" class="st1" width="31.2" height="31.2"/>
				<rect x="125" y="343.8" class="st1" width="31.2" height="31.2"/>
				<rect x="125" y="312.5" class="st1" width="31.2" height="31.2"/>
				<rect x="125" y="281.2" class="st1" width="31.2" height="31.2"/>
				<rect x="125" y="250" class="st1" width="31.2" height="31.2"/>
				<rect x="125" y="218.8" class="st1" width="31.2" height="31.2"/>
				<rect x="125" y="187.5" class="st2" width="31.2" height="31.2"/>
				<rect x="125" y="156.2" class="st4" width="31.2" height="31.2"/>
				<rect x="125" y="125" class="st4" width="31.2" height="31.2"/>
				<rect x="125" y="93.8" class="st2" width="31.2" height="31.2"/>
				<rect x="125" y="62.5" class="st1" width="31.2" height="31.2"/>
				<rect x="125" y="31.2" class="st0" width="31.2" height="31.2"/>
				<rect x="125" class="st0" width="31.2" height="31.2"/>
				<rect x="93.8" y="468.8" class="st0" width="31.2" height="31.2"/>
				<rect x="93.8" y="437.5" class="st1" width="31.2" height="31.2"/>
				<rect x="93.8" y="406.2" class="st1" width="31.2" height="31.2"/>
				<rect x="93.8" y="375" class="st1" width="31.2" height="31.2"/>
				<rect x="93.8" y="343.8" class="st1" width="31.2" height="31.2"/>
				<rect x="93.8" y="312.5" class="st1" width="31.2" height="31.2"/>
				<rect x="93.8" y="281.2" class="st1" width="31.2" height="31.2"/>
				<rect x="93.8" y="250" class="st1" width="31.2" height="31.2"/>
				<rect x="93.8" y="218.8" class="st1" width="31.2" height="31.2"/>
				<rect x="93.8" y="187.5" class="st2" width="31.2" height="31.2"/>
				<rect x="93.8" y="156.2" class="st4" width="31.2" height="31.2"/>
				<rect x="93.8" y="125" class="st4" width="31.2" height="31.2"/>
				<rect x="93.8" y="93.8" class="st2" width="31.2" height="31.2"/>
				<rect x="93.8" y="62.5" class="st1" width="31.2" height="31.2"/>
				<rect x="93.8" y="31.2" class="st1" width="31.2" height="31.2"/>
				<rect x="93.8" class="st0" width="31.2" height="31.2"/>
				<rect x="62.5" y="468.8" class="st0" width="31.2" height="31.2"/>
				<rect x="62.5" y="437.5" class="st0" width="31.2" height="31.2"/>
				<rect x="62.5" y="406.2" class="st1" width="31.2" height="31.2"/>
				<rect x="62.5" y="375" class="st1" width="31.2" height="31.2"/>
				<rect x="62.5" y="343.8" class="st1" width="31.2" height="31.2"/>
				<rect x="62.5" y="312.5" class="st1" width="31.2" height="31.2"/>
				<rect x="62.5" y="281.2" class="st1" width="31.2" height="31.2"/>
				<rect x="62.5" y="250" class="st1" width="31.2" height="31.2"/>
				<rect x="62.5" y="218.8" class="st1" width="31.2" height="31.2"/>
				<rect x="62.5" y="187.5" class="st2" width="31.2" height="31.2"/>
				<rect x="62.5" y="156.2" class="st4" width="31.2" height="31.2"/>
				<rect x="62.5" y="125" class="st4" width="31.2" height="31.2"/>
				<rect x="62.5" y="93.8" class="st2" width="31.2" height="31.2"/>
				<rect x="62.5" y="62.5" class="st1" width="31.2" height="31.2"/>
				<rect x="62.5" y="31.2" class="st1" width="31.2" height="31.2"/>
				<rect x="62.5" class="st0" width="31.2" height="31.2"/>
				<rect x="31.2" y="468.8" class="st0" width="31.2" height="31.2"/>
				<rect x="31.2" y="437.5" class="st0" width="31.2" height="31.2"/>
				<rect x="31.2" y="406.2" class="st1" width="31.2" height="31.2"/>
				<rect x="31.2" y="375" class="st1" width="31.2" height="31.2"/>
				<rect x="31.2" y="343.8" class="st1" width="31.2" height="31.2"/>
				<rect x="31.2" y="312.5" class="st1" width="31.2" height="31.2"/>
				<rect x="31.2" y="281.2" class="st1" width="31.2" height="31.2"/>
				<rect x="31.2" y="250" class="st1" width="31.2" height="31.2"/>
				<rect x="31.2" y="218.8" class="st1" width="31.2" height="31.2"/>
				<rect x="31.2" y="187.5" class="st2" width="31.2" height="31.2"/>
				<rect x="31.2" y="156.2" class="st3" width="31.2" height="31.2"/>
				<rect x="31.2" y="125" class="st3" width="31.2" height="31.2"/>
				<rect x="31.2" y="93.8" class="st2" width="31.2" height="31.2"/>
				<rect x="31.2" y="62.5" class="st1" width="31.2" height="31.2"/>
				<rect x="31.2" y="31.2" class="st1" width="31.2" height="31.2"/>
				<rect x="31.2" class="st1" width="31.2" height="31.2"/>
				<rect y="468.8" class="st0" width="31.2" height="31.2"/>
				<rect y="437.5" class="st0" width="31.2" height="31.2"/>
				<rect y="406.2" class="st0" width="31.2" height="31.2"/>
				<rect y="375" class="st1" width="31.2" height="31.2"/>
				<rect y="343.8" class="st1" width="31.2" height="31.2"/>
				<rect y="312.5" class="st1" width="31.2" height="31.2"/>
				<rect y="281.2" class="st1" width="31.2" height="31.2"/>
				<rect y="250" class="st1" width="31.2" height="31.2"/>
				<rect y="218.8" class="st1" width="31.2" height="31.2"/>
				<rect y="187.5" class="st2" width="31.2" height="31.2"/>
				<rect y="156.2" class="st2" width="31.2" height="31.2"/>
				<rect y="125" class="st2" width="31.2" height="31.2"/>
				<rect y="93.8" class="st2" width="31.2" height="31.2"/>
				<rect y="62.5" class="st1" width="31.2" height="31.2"/>
				<rect y="31.2" class="st1" width="31.2" height="31.2"/>
				<rect class="st1" width="31.2" height="31.2"/>
			</g>
			<g>
			</g>
		</g>
	</g>
	<g class="st5">
		<polygon class="st6" points="0,31.2 0,0 31.2,0 62.5,0 93.8,0 125,0 156.2,0 187.5,0 218.8,0 250,0 281.2,0 312.5,0 343.8,0 
			375,0 406.2,0 437.5,0 468.8,0 500,0 500,31.2 500,62.5 500,93.8 500,125 500,156.2 500,187.5 500,218.8 500,250 500,281.2 
			500,312.5 500,343.8 500,375 500,406.2 500,437.5 500,468.8 500,500 468.8,500 437.5,500 406.2,500 375,500 343.8,500 312.5,500 
			281.2,500 250,500 218.8,500 187.5,500 156.2,500 125,500 93.8,500 62.5,500 31.2,500 0,500 0,468.8 0,437.5 0,406.2 0,375 
			0,343.8 0,312.5 0,281.2 0,250 0,218.8 0,187.5 0,156.2 0,125 0,93.8 0,62.5 		"/>
		<polyline class="st6" points="0,468.8 31.2,468.8 62.5,468.8 93.8,468.8 125,468.8 156.2,468.8 187.5,468.8 218.8,468.8 
			250,468.8 281.2,468.8 312.5,468.8 343.8,468.8 375,468.8 406.2,468.8 437.5,468.8 468.8,468.8 500,468.8 		"/>
		<polyline class="st6" points="0,437.5 31.2,437.5 62.5,437.5 93.8,437.5 125,437.5 156.2,437.5 187.5,437.5 218.8,437.5 
			250,437.5 281.2,437.5 312.5,437.5 343.8,437.5 375,437.5 406.2,437.5 437.5,437.5 468.8,437.5 500,437.5 		"/>
		<polyline class="st6" points="0,406.2 31.2,406.2 62.5,406.2 93.8,406.2 125,406.2 156.2,406.2 187.5,406.2 218.8,406.2 
			250,406.2 281.2,406.2 312.5,406.2 343.8,406.2 375,406.2 406.2,406.2 437.5,406.2 468.8,406.2 500,406.2 		"/>
		<polyline class="st6" points="0,375 31.2,375 62.5,375 93.8,375 125,375 156.2,375 187.5,375 218.8,375 250,375 281.2,375 
			312.5,375 343.8,375 375,375 406.2,375 437.5,375 468.8,375 500,375 		"/>
		<polyline class="st6" points="0,343.8 31.2,343.8 62.5,343.8 93.8,343.8 125,343.8 156.2,343.8 187.5,343.8 218.8,343.8 
			250,343.8 281.2,343.8 312.5,343.8 343.8,343.8 375,343.8 406.2,343.8 437.5,343.8 468.8,343.8 500,343.8 		"/>
		<polyline class="st6" points="0,312.5 31.2,312.5 62.5,312.5 93.8,312.5 125,312.5 156.2,312.5 187.5,312.5 218.8,312.5 
			250,312.5 281.2,312.5 312.5,312.5 343.8,312.5 375,312.5 406.2,312.5 437.5,312.5 468.8,312.5 500,312.5 		"/>
		<polyline class="st6" points="0,281.2 31.2,281.2 62.5,281.2 93.8,281.2 125,281.2 156.2,281.2 187.5,281.2 218.8,281.2 
			250,281.2 281.2,281.2 312.5,281.2 343.8,281.2 375,281.2 406.2,281.2 437.5,281.2 468.8,281.2 500,281.2 		"/>
		<polyline class="st6" points="0,250 31.2,250 62.5,250 93.8,250 125,250 156.2,250 187.5,250 218.8,250 250,250 281.2,250 
			312.5,250 343.8,250 375,250 406.2,250 437.5,250 468.8,250 500,250 		"/>
		<polyline class="st6" points="0,218.8 31.2,218.8 62.5,218.8 93.8,218.8 125,218.8 156.2,218.8 187.5,218.8 218.8,218.8 
			250,218.8 281.2,218.8 312.5,218.8 343.8,218.8 375,218.8 406.2,218.8 437.5,218.8 468.8,218.8 500,218.8 		"/>
		<polyline class="st6" points="0,187.5 31.2,187.5 62.5,187.5 93.8,187.5 125,187.5 156.2,187.5 187.5,187.5 218.8,187.5 
			250,187.5 281.2,187.5 312.5,187.5 343.8,187.5 375,187.5 406.2,187.5 437.5,187.5 468.8,187.5 500,187.5 		"/>
		<polyline class="st6" points="0,156.2 31.2,156.2 62.5,156.2 93.8,156.2 125,156.2 156.2,156.2 187.5,156.2 218.8,156.2 
			250,156.2 281.2,156.2 312.5,156.2 343.8,156.2 375,156.2 406.2,156.2 437.5,156.2 468.8,156.2 500,156.2 		"/>
		<polyline class="st6" points="0,125 31.2,125 62.5,125 93.8,125 125,125 156.2,125 187.5,125 218.8,125 250,125 281.2,125 
			312.5,125 343.8,125 375,125 406.2,125 437.5,125 468.8,125 500,125 		"/>
		<polyline class="st6" points="0,93.8 31.2,93.8 62.5,93.8 93.8,93.8 125,93.8 156.2,93.8 187.5,93.8 218.8,93.8 250,93.8 
			281.2,93.8 312.5,93.8 343.8,93.8 375,93.8 406.2,93.8 437.5,93.8 468.8,93.8 500,93.8 		"/>
		<polyline class="st6" points="0,62.5 31.2,62.5 62.5,62.5 93.8,62.5 125,62.5 156.2,62.5 187.5,62.5 218.8,62.5 250,62.5 
			281.2,62.5 312.5,62.5 343.8,62.5 375,62.5 406.2,62.5 437.5,62.5 468.8,62.5 500,62.5 		"/>
		<polyline class="st6" points="0,31.2 31.2,31.2 62.5,31.2 93.8,31.2 125,31.2 156.2,31.2 187.5,31.2 218.8,31.2 250,31.2 
			281.2,31.2 312.5,31.2 343.8,31.2 375,31.2 406.2,31.2 437.5,31.2 468.8,31.2 500,31.2 		"/>
		<polyline class="st6" points="468.8,0 468.8,31.2 468.8,62.5 468.8,93.8 468.8,125 468.8,156.2 468.8,187.5 468.8,218.8 
			468.8,250 468.8,281.2 468.8,312.5 468.8,343.8 468.8,375 468.8,406.2 468.8,437.5 468.8,468.8 468.8,500 		"/>
		<polyline class="st6" points="437.5,0 437.5,31.2 437.5,62.5 437.5,93.8 437.5,125 437.5,156.2 437.5,187.5 437.5,218.8 
			437.5,250 437.5,281.2 437.5,312.5 437.5,343.8 437.5,375 437.5,406.2 437.5,437.5 437.5,468.8 437.5,500 		"/>
		<polyline class="st6" points="406.2,0 406.2,31.2 406.2,62.5 406.2,93.8 406.2,125 406.2,156.2 406.2,187.5 406.2,218.8 
			406.2,250 406.2,281.2 406.2,312.5 406.2,343.8 406.2,375 406.2,406.2 406.2,437.5 406.2,468.8 406.2,500 		"/>
		<polyline class="st6" points="375,0 375,31.2 375,62.5 375,93.8 375,125 375,156.2 375,187.5 375,218.8 375,250 375,281.2 
			375,312.5 375,343.8 375,375 375,406.2 375,437.5 375,468.8 375,500 		"/>
		<polyline class="st6" points="343.8,0 343.8,31.2 343.8,62.5 343.8,93.8 343.8,125 343.8,156.2 343.8,187.5 343.8,218.8 
			343.8,250 343.8,281.2 343.8,312.5 343.8,343.8 343.8,375 343.8,406.2 343.8,437.5 343.8,468.8 343.8,500 		"/>
		<polyline class="st6" points="312.5,0 312.5,31.2 312.5,62.5 312.5,93.8 312.5,125 312.5,156.2 312.5,187.5 312.5,218.8 
			312.5,250 312.5,281.2 312.5,312.5 312.5,343.8 312.5,375 312.5,406.2 312.5,437.5 312.5,468.8 312.5,500 		"/>
		<polyline class="st6" points="281.2,0 281.2,31.2 281.2,62.5 281.2,93.8 281.2,125 281.2,156.2 281.2,187.5 281.2,218.8 
			281.2,250 281.2,281.2 281.2,312.5 281.2,343.8 281.2,375 281.2,406.2 281.2,437.5 281.2,468.8 281.2,500 		"/>
		<polyline class="st6" points="250,0 250,31.2 250,62.5 250,93.8 250,125 250,156.2 250,187.5 250,218.8 250,250 250,281.2 
			250,312.5 250,343.8 250,375 250,406.2 250,437.5 250,468.8 250,500 		"/>
		<polyline class="st6" points="218.8,0 218.8,31.2 218.8,62.5 218.8,93.8 218.8,125 218.8,156.2 218.8,187.5 218.8,218.8 
			218.8,250 218.8,281.2 218.8,312.5 218.8,343.8 218.8,375 218.8,406.2 218.8,437.5 218.8,468.8 218.8,500 		"/>
		<polyline class="st6" points="187.5,0 187.5,31.2 187.5,62.5 187.5,93.8 187.5,125 187.5,156.2 187.5,187.5 187.5,218.8 
			187.5,250 187.5,281.2 187.5,312.5 187.5,343.8 187.5,375 187.5,406.2 187.5,437.5 187.5,468.8 187.5,500 		"/>
		<polyline class="st6" points="156.2,0 156.2,31.2 156.2,62.5 156.2,93.8 156.2,125 156.2,156.2 156.2,187.5 156.2,218.8 
			156.2,250 156.2,281.2 156.2,312.5 156.2,343.8 156.2,375 156.2,406.2 156.2,437.5 156.2,468.8 156.2,500 		"/>
		<polyline class="st6" points="125,0 125,31.2 125,62.5 125,93.8 125,125 125,156.2 125,187.5 125,218.8 125,250 125,281.2 
			125,312.5 125,343.8 125,375 125,406.2 125,437.5 125,468.8 125,500 		"/>
		<polyline class="st6" points="93.8,0 93.8,31.2 93.8,62.5 93.8,93.8 93.8,125 93.8,156.2 93.8,187.5 93.8,218.8 93.8,250 
			93.8,281.2 93.8,312.5 93.8,343.8 93.8,375 93.8,406.2 93.8,437.5 93.8,468.8 93.8,500 		"/>
		<polyline class="st6" points="62.5,0 62.5,31.2 62.5,62.5 62.5,93.8 62.5,125 62.5,156.2 62.5,187.5 62.5,218.8 62.5,250 
			62.5,281.2 62.5,312.5 62.5,343.8 62.5,375 62.5,406.2 62.5,437.5 62.5,468.8 62.5,500 		"/>
		<polyline class="st6" points="31.2,0 31.2,31.2 31.2,62.5 31.2,93.8 31.2,125 31.2,156.2 31.2,187.5 31.2,218.8 31.2,250 
			31.2,281.2 31.2,312.5 31.2,343.8 31.2,375 31.2,406.2 31.2,437.5 31.2,468.8 31.2,500 		"/>
	</g>
</g>
</svg>
